<svg width="146" height="41" viewBox="0 0 146 41" fill="none" xmlns="http://www.w3.org/2000/svg">
<path opacity="0.8" d="M21.2936 16.2378H31.811L21.2936 0.333496H10.7764L21.2936 16.2378Z" fill="black"/>
<path opacity="0.9" d="M10.5227 16.2378H0.00537109L10.5227 0.333496H21.04L10.5227 16.2378Z" fill="black"/>
<path opacity="0.6" d="M21.2954 32.1423V16.238H31.8124V32.1423H21.2954Z" fill="black"/>
<path d="M0.00366211 32.1423V16.238H10.521V32.1423H0.00366211Z" fill="black"/>
<path d="M58.7019 10.52V32.1628H54.3608V22.9535H45.0899V32.1628H40.7493V10.52H45.0899V19.4189H54.3608V10.52H58.7019Z" fill="black"/>
<path d="M69.3619 32.4415C67.7083 32.4415 66.2198 32.0799 64.8969 31.3563C63.5739 30.6122 62.5302 29.5681 61.7654 28.2248C61.021 26.8811 60.6492 25.3306 60.6492 23.5739C60.6492 21.8167 61.0316 20.2663 61.7964 18.9227C62.5816 17.5791 63.6465 16.5456 64.9898 15.8221C66.3336 15.0779 67.8323 14.7058 69.4858 14.7058C71.1394 14.7058 72.6381 15.0779 73.9818 15.8221C75.3256 16.5456 76.3799 17.5791 77.1447 18.9227C77.9299 20.2663 78.3229 21.8167 78.3229 23.5739C78.3229 25.3306 77.9197 26.8811 77.1137 28.2248C76.3281 29.5681 75.253 30.6122 73.8889 31.3563C72.5451 32.0799 71.0363 32.4415 69.3619 32.4415ZM69.3619 28.6586C70.1475 28.6586 70.8814 28.4727 71.5634 28.1009C72.2663 27.7079 72.8244 27.1289 73.2378 26.3641C73.6512 25.5993 73.8579 24.6693 73.8579 23.5739C73.8579 21.9407 73.4237 20.6901 72.5558 19.8219C71.7082 18.9331 70.6641 18.4886 69.4239 18.4886C68.1837 18.4886 67.1396 18.9331 66.2924 19.8219C65.4652 20.6901 65.0518 21.9407 65.0518 23.5739C65.0518 25.2067 65.455 26.4677 66.261 27.3564C67.0882 28.2248 68.1217 28.6586 69.3619 28.6586Z" fill="black"/>
<path d="M101.599 14.7368C103.708 14.7368 105.403 15.3879 106.684 16.6902C107.986 17.9718 108.638 19.7702 108.638 22.0854V32.1627H104.297V22.6745C104.297 21.3309 103.956 20.3077 103.274 19.6048C102.592 18.8814 101.661 18.5196 100.483 18.5196C99.3047 18.5196 98.3642 18.8814 97.6613 19.6048C96.9793 20.3077 96.6385 21.3309 96.6385 22.6745V32.1627H92.2974V22.6745C92.2974 21.3309 91.9561 20.3077 91.2741 19.6048C90.592 18.8814 89.6616 18.5196 88.4834 18.5196C87.2844 18.5196 86.3337 18.8814 85.6308 19.6048C84.9488 20.3077 84.6075 21.3309 84.6075 22.6745V32.1627H80.2668V14.9849H84.6075V17.0623C85.1656 16.3388 85.8791 15.7704 86.7471 15.357C87.6358 14.9435 88.6074 14.7368 89.6616 14.7368C91.0054 14.7368 92.2044 15.0262 93.2587 15.605C94.3126 16.1631 95.1292 16.9693 95.7081 18.0235C96.2662 17.0313 97.0722 16.2354 98.1265 15.636C99.2016 15.0366 100.359 14.7368 101.599 14.7368Z" fill="black"/>
<path d="M127.485 23.2017C127.485 23.8218 127.444 24.3799 127.361 24.876H114.804C114.907 26.1162 115.341 27.0878 116.106 27.7906C116.871 28.4935 117.811 28.8449 118.927 28.8449C120.54 28.8449 121.687 28.1522 122.369 26.7673H127.051C126.555 28.4209 125.604 29.7854 124.198 30.8601C122.793 31.9144 121.067 32.4415 119.02 32.4415C117.367 32.4415 115.878 32.0799 114.555 31.3563C113.253 30.6122 112.23 29.5681 111.486 28.2248C110.762 26.8811 110.401 25.3306 110.401 23.5739C110.401 21.7959 110.762 20.2353 111.486 18.8917C112.209 17.5481 113.222 16.5145 114.524 15.791C115.827 15.0676 117.325 14.7058 119.02 14.7058C120.653 14.7058 122.111 15.0572 123.392 15.7601C124.695 16.4629 125.697 17.4654 126.4 18.7677C127.124 20.0493 127.485 21.5273 127.485 23.2017ZM122.989 21.9615C122.968 20.8451 122.565 19.9563 121.78 19.2948C120.994 18.6127 120.033 18.2716 118.896 18.2716C117.821 18.2716 116.912 18.6023 116.168 19.2638C115.444 19.9046 115 20.8038 114.835 21.9615H122.989Z" fill="black"/>
<path d="M145.847 14.9849L135.212 40.2863H130.592L134.312 31.7285L127.429 14.9849H132.297L136.731 26.9846L141.227 14.9849H145.847Z" fill="black"/>
</svg>
