<svg width="144" height="29" viewBox="0 0 144 29" fill="none" xmlns="http://www.w3.org/2000/svg">
<path d="M4.42906 3.62542C6.36409 1.77794 8.99161 0.699609 11.6547 0.565478C12.5661 0.565478 13.4802 0.570948 14.3917 0.562744C14.3451 1.53985 14.3917 2.5197 14.3643 3.49676C14.2357 5.68086 13.4282 7.81569 12.068 9.52904C10.2999 11.8336 7.59575 13.38 4.72467 13.7796C3.47114 13.9821 2.19843 13.8535 0.936696 13.889C0.958572 12.8134 0.890162 11.7351 0.975025 10.6622C1.22136 8.00183 2.47763 5.45371 4.42906 3.62542Z" fill="black"/>
<path d="M15.2356 0.562744C16.2127 0.573682 17.1898 0.557275 18.1697 0.568213C20.6083 0.740627 23.0141 1.67667 24.8504 3.29973C26.8758 5.03769 28.2635 7.52287 28.6195 10.1777C28.7752 11.4093 28.6769 12.6547 28.7372 13.8918C27.883 13.889 27.032 13.8863 26.1778 13.8918C24.0787 13.8343 22.0151 13.1555 20.258 12.0115C19.4478 11.4313 18.6158 10.8428 18.0082 10.0381C16.6753 8.5492 15.7693 6.67989 15.4272 4.70927C15.1699 3.34075 15.2739 1.94493 15.2356 0.562744Z" fill="black"/>
<path d="M0.938579 14.6743C1.80621 14.7236 2.67658 14.6333 3.54144 14.7291C7.24455 14.8084 10.8382 16.8885 12.7568 20.0552C13.8571 21.8287 14.4483 23.9305 14.3717 26.019C14.3689 26.7031 14.3799 27.3848 14.3607 28.0662C12.9867 28.0254 11.5991 28.1375 10.2388 27.872C7.2172 27.3631 4.4392 25.5648 2.76687 22.9974C1.49967 21.1308 0.867433 18.8509 0.933109 16.5984C0.933109 15.9552 0.93311 15.3148 0.938579 14.6743Z" fill="black"/>
<path d="M24.1125 14.9642C25.6017 14.633 27.1367 14.6877 28.6505 14.6877L28.7163 14.7534C28.6834 16.1848 28.7955 17.6327 28.5082 19.0477C27.9033 22.2226 25.8015 25.058 22.974 26.6153C21.2142 27.5951 19.1943 28.0771 17.1826 28.0549C16.5394 28.0577 15.8935 28.0442 15.2503 28.0632C15.2503 26.8781 15.201 25.6874 15.3352 24.5079C15.6472 21.6533 17.1908 18.9957 19.4105 17.2003C20.7844 16.1164 22.3992 15.3309 24.1125 14.9642Z" fill="black"/>
<path d="M39.9521 22.7654C39.9521 23.2472 39.7853 23.6549 39.452 23.9886C39.1369 24.3037 38.7383 24.4609 38.2567 24.4609C37.7932 24.4609 37.4039 24.3037 37.0892 23.9886C36.774 23.6549 36.6165 23.2472 36.6165 22.7654V5.58582C36.6165 5.10399 36.774 4.70554 37.0892 4.39051C37.4224 4.05694 37.8303 3.89014 38.3123 3.89014C38.7939 3.89014 39.1832 4.05694 39.4798 4.39051C39.7945 4.70554 39.9521 5.10399 39.9521 5.58582V22.7654Z" fill="black"/>
<path d="M53.3416 9.58887C53.8231 9.58887 54.2217 9.75563 54.5369 10.0892C54.8516 10.4043 55.0092 10.8027 55.0092 11.2846V18.3454C55.0092 20.3098 54.4627 21.8665 53.3694 23.0156C52.2756 24.1647 50.7007 24.739 48.6433 24.739C46.5863 24.739 45.011 24.1647 43.9176 23.0156C42.8428 21.8665 42.3052 20.3098 42.3052 18.3454V11.2846C42.3052 10.8027 42.4628 10.4043 42.7779 10.0892C43.0931 9.75563 43.4912 9.58887 43.9732 9.58887C44.4553 9.58887 44.8534 9.75563 45.1686 10.0892C45.4837 10.4043 45.6413 10.8027 45.6413 11.2846V18.3454C45.6413 19.4759 45.8916 20.3191 46.3917 20.8751C46.8922 21.4125 47.6426 21.6812 48.6433 21.6812C49.6629 21.6812 50.4226 21.4125 50.9231 20.8751C51.4232 20.3191 51.6735 19.4759 51.6735 18.3454V11.2846C51.6735 10.8027 51.8311 10.4043 52.1462 10.0892C52.4609 9.75563 52.8595 9.58887 53.3416 9.58887Z" fill="black"/>
<path d="M65.042 9.31079C66.5246 9.31079 67.618 9.67216 68.3225 10.3949C69.0265 11.0992 69.49 12.0165 69.712 13.147L69.2397 12.8968L69.4622 12.452C69.6842 12.0258 70.0272 11.5717 70.4906 11.0899C70.9536 10.5895 71.5098 10.1725 72.1582 9.83897C72.8256 9.48682 73.5667 9.31079 74.3825 9.31079C75.7168 9.31079 76.7268 9.59801 77.4122 10.1725C78.1167 10.747 78.5983 11.5161 78.8578 12.4798C79.1174 13.425 79.2472 14.4813 79.2472 15.6488V22.7653C79.2472 23.2471 79.0896 23.6548 78.7744 23.9885C78.4592 24.3037 78.0611 24.4608 77.5791 24.4608C77.0975 24.4608 76.6989 24.3037 76.3838 23.9885C76.0686 23.6548 75.911 23.2471 75.911 22.7653V15.6488C75.911 15.0373 75.8373 14.4906 75.689 14.0087C75.5407 13.5083 75.2719 13.1099 74.8826 12.8134C74.4937 12.5169 73.9375 12.3686 73.215 12.3686C72.5105 12.3686 71.9084 12.5169 71.4079 12.8134C70.9073 13.1099 70.5277 13.5083 70.2682 14.0087C70.0271 14.4906 69.9066 15.0373 69.9066 15.6488V22.7653C69.9066 23.2471 69.7491 23.6548 69.4344 23.9885C69.1192 24.3037 68.7206 24.4608 68.239 24.4608C67.757 24.4608 67.3584 24.3037 67.0437 23.9885C66.7286 23.6548 66.571 23.2471 66.571 22.7653V15.6488C66.571 15.0373 66.4968 14.4906 66.3485 14.0087C66.2002 13.5083 65.9314 13.1099 65.5425 12.8134C65.1532 12.5169 64.597 12.3686 63.8745 12.3686C63.1704 12.3686 62.5679 12.5169 62.0673 12.8134C61.5672 13.1099 61.1872 13.5083 60.9276 14.0087C60.6871 14.4906 60.5666 15.0373 60.5666 15.6488V22.7653C60.5666 23.2471 60.409 23.6548 60.0938 23.9885C59.7787 24.3037 59.3806 24.4608 58.8985 24.4608C58.4165 24.4608 58.0184 24.3037 57.7032 23.9885C57.388 23.6548 57.2305 23.2471 57.2305 22.7653V11.2845C57.2305 10.8026 57.388 10.4042 57.7032 10.0892C58.0184 9.75555 58.4165 9.58879 58.8985 9.58879C59.3806 9.58879 59.7787 9.75555 60.0938 10.0892C60.409 10.4042 60.5666 10.8026 60.5666 11.2845V12.4798L60.1495 12.3964C60.3163 12.0814 60.5481 11.7478 60.8442 11.3957C61.1408 11.025 61.5024 10.6822 61.9288 10.3671C62.3547 10.0521 62.8274 9.80189 63.3461 9.61655C63.8652 9.41271 64.4306 9.31079 65.042 9.31079Z" fill="black"/>
<path d="M84.6088 22.7653C84.6088 23.2472 84.4512 23.6549 84.136 23.9886C83.8213 24.3037 83.4227 24.4609 82.9407 24.4609C82.4592 24.4609 82.0606 24.3037 81.7454 23.9886C81.4307 23.6549 81.2731 23.2472 81.2731 22.7653V11.2845C81.2731 10.8027 81.4307 10.4042 81.7454 10.0892C82.0606 9.7556 82.4592 9.58884 82.9407 9.58884C83.4227 9.58884 83.8213 9.7556 84.136 10.0892C84.4512 10.4042 84.6088 10.8027 84.6088 11.2845V22.7653ZM82.9129 7.78192C82.283 7.78192 81.8381 7.68 81.5786 7.47612C81.3195 7.27228 81.1897 6.9109 81.1897 6.39199V5.86381C81.1897 5.32636 81.3287 4.96498 81.6064 4.77968C81.903 4.5758 82.3479 4.47388 82.9407 4.47388C83.5896 4.47388 84.0438 4.5758 84.3029 4.77968C84.5624 4.98352 84.6922 5.3449 84.6922 5.86381V6.39199C84.6922 6.92944 84.5532 7.30008 84.2751 7.50392C83.9975 7.68927 83.5432 7.78192 82.9129 7.78192Z" fill="black"/>
<path d="M94.5978 9.31079C95.9692 9.31079 97.0069 9.59801 97.7109 10.1725C98.434 10.747 98.9248 11.5161 99.1844 12.4798C99.4624 13.425 99.6015 14.4813 99.6015 15.6488V22.7653C99.6015 23.2471 99.4439 23.6548 99.1287 23.9885C98.8136 24.3037 98.4154 24.4608 97.9334 24.4608C97.4519 24.4608 97.0533 24.3037 96.7381 23.9885C96.4229 23.6548 96.2654 23.2471 96.2654 22.7653V15.6488C96.2654 15.0373 96.1824 14.4906 96.0155 14.0087C95.8672 13.5083 95.5891 13.1099 95.1813 12.8134C94.7739 12.5169 94.1899 12.3686 93.4302 12.3686C92.6887 12.3686 92.0588 12.5169 91.5397 12.8134C91.0396 13.1099 90.6503 13.5083 90.3722 14.0087C90.1127 14.4906 89.9829 15.0373 89.9829 15.6488V22.7653C89.9829 23.2471 89.8258 23.6548 89.5106 23.9885C89.1954 24.3037 88.7968 24.4608 88.3153 24.4608C87.8333 24.4608 87.4347 24.3037 87.12 23.9885C86.8048 23.6548 86.6472 23.2471 86.6472 22.7653V11.2845C86.6472 10.8026 86.8048 10.4042 87.12 10.0892C87.4347 9.75555 87.8333 9.58879 88.3153 9.58879C88.7968 9.58879 89.1954 9.75555 89.5106 10.0892C89.8258 10.4042 89.9829 10.8026 89.9829 11.2845V12.4798L89.5662 12.3964C89.7331 12.0814 89.9736 11.7478 90.2888 11.3957C90.6039 11.025 90.9747 10.6822 91.4007 10.3671C91.8271 10.0521 92.3091 9.80189 92.8463 9.61655C93.3839 9.41271 93.9674 9.31079 94.5978 9.31079Z" fill="black"/>
<path d="M116.106 17.0388C116.106 18.5584 115.763 19.902 115.077 21.0696C114.41 22.2186 113.502 23.1174 112.353 23.766C111.222 24.4144 109.953 24.7389 108.544 24.7389C107.136 24.7389 105.857 24.4144 104.708 23.766C103.578 23.1174 102.67 22.2186 101.984 21.0696C101.317 19.902 100.983 18.5584 100.983 17.0388C100.983 15.5191 101.317 14.1848 101.984 13.0358C102.67 11.8682 103.578 10.9602 104.708 10.3115C105.857 9.64436 107.136 9.31079 108.544 9.31079C109.953 9.31079 111.222 9.64436 112.353 10.3115C113.502 10.9602 114.41 11.8682 115.077 13.0358C115.763 14.1848 116.106 15.5191 116.106 17.0388ZM112.77 17.0388C112.77 16.0936 112.575 15.2782 112.186 14.5925C111.815 13.8883 111.306 13.3416 110.657 12.9524C110.027 12.5632 109.323 12.3686 108.544 12.3686C107.766 12.3686 107.052 12.5632 106.404 12.9524C105.774 13.3416 105.264 13.8883 104.875 14.5925C104.504 15.2782 104.319 16.0936 104.319 17.0388C104.319 17.9654 104.504 18.7808 104.875 19.4851C105.264 20.1707 105.774 20.7082 106.404 21.0974C107.052 21.4865 107.766 21.6811 108.544 21.6811C109.323 21.6811 110.027 21.4865 110.657 21.0974C111.306 20.7082 111.815 20.1707 112.186 19.4851C112.575 18.7808 112.77 17.9654 112.77 17.0388Z" fill="black"/>
<path d="M128.538 9.58887C129.02 9.58887 129.419 9.75563 129.734 10.0892C130.049 10.4043 130.206 10.8027 130.206 11.2846V18.3454C130.206 20.3098 129.66 21.8665 128.566 23.0156C127.473 24.1647 125.898 24.739 123.841 24.739C121.784 24.739 120.208 24.1647 119.115 23.0156C118.04 21.8665 117.502 20.3098 117.502 18.3454V11.2846C117.502 10.8027 117.66 10.4043 117.975 10.0892C118.29 9.75563 118.688 9.58887 119.171 9.58887C119.653 9.58887 120.051 9.75563 120.366 10.0892C120.681 10.4043 120.839 10.8027 120.839 11.2846V18.3454C120.839 19.4759 121.088 20.3191 121.589 20.8751C122.089 21.4125 122.84 21.6812 123.841 21.6812C124.86 21.6812 125.62 21.4125 126.12 20.8751C126.62 20.3191 126.871 19.4759 126.871 18.3454V11.2846C126.871 10.8027 127.028 10.4043 127.343 10.0892C127.658 9.75563 128.057 9.58887 128.538 9.58887Z" fill="black"/>
<path d="M131.566 22.1537C131.381 21.8943 131.297 21.5607 131.316 21.153C131.335 20.7453 131.576 20.3932 132.039 20.0966C132.335 19.9113 132.65 19.8372 132.984 19.8742C133.317 19.8928 133.642 20.0595 133.957 20.3746C134.495 20.912 135.06 21.329 135.653 21.6255C136.246 21.922 136.987 22.0703 137.877 22.0703C138.155 22.0518 138.46 22.0147 138.794 21.9591C139.127 21.885 139.415 21.7367 139.655 21.5144C139.915 21.2734 140.045 20.912 140.045 20.4302C140.045 20.0225 139.906 19.6982 139.628 19.4572C139.35 19.2163 138.979 19.0125 138.516 18.8457C138.071 18.6789 137.571 18.5214 137.015 18.3731C136.44 18.2063 135.847 18.021 135.236 17.8171C134.642 17.6133 134.096 17.3538 133.595 17.0388C133.095 16.7052 132.687 16.2697 132.372 15.7323C132.058 15.1948 131.9 14.5184 131.9 13.703C131.9 12.7763 132.159 11.9887 132.678 11.3401C133.197 10.6914 133.864 10.1911 134.679 9.83897C135.514 9.48682 136.385 9.31079 137.293 9.31079C137.867 9.31079 138.469 9.3849 139.1 9.53317C139.73 9.6629 140.332 9.88527 140.906 10.2003C141.481 10.4968 141.963 10.8953 142.352 11.3957C142.556 11.6737 142.676 12.0072 142.713 12.3964C142.751 12.7856 142.574 13.1377 142.185 13.4528C141.907 13.6751 141.583 13.7771 141.212 13.7585C140.842 13.7215 140.536 13.5918 140.295 13.3693C139.98 12.9617 139.554 12.6373 139.016 12.3964C138.497 12.1555 137.895 12.035 137.209 12.035C136.932 12.035 136.626 12.0721 136.292 12.1462C135.977 12.2018 135.699 12.3408 135.458 12.5632C135.217 12.7671 135.097 13.1007 135.097 13.564C135.097 13.9902 135.236 14.3331 135.514 14.5925C135.792 14.8334 136.162 15.0373 136.626 15.2041C137.107 15.3523 137.617 15.5006 138.155 15.6488C138.71 15.7971 139.276 15.9732 139.85 16.177C140.425 16.3809 140.953 16.6496 141.435 16.9832C141.917 17.3168 142.306 17.7523 142.602 18.2897C142.899 18.8086 143.047 19.4758 143.047 20.2912C143.047 21.2364 142.769 22.0425 142.213 22.7097C141.657 23.3768 140.962 23.8865 140.128 24.2388C139.294 24.572 138.442 24.7389 137.571 24.7389C136.477 24.7389 135.384 24.5535 134.291 24.1832C133.197 23.7938 132.289 23.1174 131.566 22.1537Z" fill="black"/>
</svg>
