<svg width="153" height="33" viewBox="0 0 153 33" fill="none" xmlns="http://www.w3.org/2000/svg">
<path fill-rule="evenodd" clip-rule="evenodd" d="M86.7245 30.75C85.0965 30.75 83.7367 30.3709 82.6446 29.6124C82.525 29.5296 82.409 29.4433 82.2959 29.3537V30.295H78.6558V2.56299H82.8115V14.4434C83.831 13.7879 85.0643 13.4601 86.512 13.4601C88.0793 13.4601 89.4442 13.8342 90.6071 14.5824C91.77 15.3306 92.6698 16.3569 93.3065 17.6613C93.9537 18.9555 94.2772 20.4368 94.2772 22.1049C94.2772 23.743 93.9588 25.2141 93.3217 26.5187C92.6951 27.8229 91.8151 28.8542 90.683 29.6124C89.5504 30.3709 88.231 30.75 86.7245 30.75ZM82.6598 19.4965C82.4169 20.2445 82.2959 21.114 82.2959 22.1049C82.2959 23.0958 82.4169 23.9656 82.6598 24.7136C82.9023 25.462 83.2969 26.0431 83.8425 26.458C84.3987 26.8725 85.137 27.0795 86.057 27.0795C86.9467 27.0795 87.6749 26.8573 88.2412 26.4124C88.8074 25.9676 89.227 25.371 89.4998 24.6226C89.773 23.8644 89.9093 23.0253 89.9093 22.1049C89.9093 21.1949 89.768 20.366 89.4846 19.6179C89.2017 18.8594 88.7619 18.2578 88.1653 17.8129C87.5788 17.3579 86.8253 17.1304 85.9053 17.1304C85.0459 17.1304 84.3481 17.3377 83.8126 17.7523C83.2868 18.1668 82.9023 18.7481 82.6598 19.4965Z" fill="black"/>
<path d="M71.3601 18.1011C71.8758 18.6976 72.1338 19.5369 72.1338 20.6185V30.295H76.2589V19.5268C76.2589 17.7371 75.7786 16.2912 74.8181 15.1891C73.8677 14.0769 72.4572 13.5208 70.5868 13.5208C69.4947 13.5208 68.4987 13.7634 67.5989 14.2487C66.775 14.6888 66.1028 15.2935 65.5825 16.063C65.1944 15.3647 64.6581 14.7903 63.974 14.3397C63.1551 13.7937 62.1035 13.5208 60.8196 13.5208C59.6972 13.5208 58.681 13.7685 57.771 14.2639C57.0834 14.6425 56.5019 15.1244 56.0267 15.7097V13.9151H52.387V30.295H56.5424V20.3761C56.5424 19.4358 56.8004 18.6723 57.3161 18.0859C57.8419 17.4893 58.5343 17.1911 59.3936 17.1911C60.2938 17.1911 60.9963 17.4944 61.5019 18.1011C62.0175 18.6976 62.2756 19.5369 62.2756 20.6185V30.295H66.4006V20.3761C66.4006 19.7491 66.517 19.198 66.7497 18.7229C66.9922 18.2376 67.3257 17.8634 67.7507 17.6006C68.1753 17.3276 68.6758 17.1911 69.2522 17.1911C70.152 17.1911 70.8545 17.4944 71.3601 18.1011Z" fill="black"/>
<path d="M37.6071 30.128C38.4159 30.5627 39.4624 30.7803 40.7467 30.7803C42.3541 30.7803 43.6839 30.4316 44.7355 29.7338C45.2346 29.406 45.6744 29.0298 46.0549 28.6059V30.295H49.695V13.915H45.5392V22.2262C45.5392 23.2374 45.4229 24.0562 45.1905 24.6832C44.9679 25.3001 44.6799 25.7702 44.3257 26.0936C43.972 26.4073 43.5929 26.6194 43.1885 26.7307C42.7841 26.8421 42.4047 26.8977 42.0509 26.8977C41.1713 26.8977 40.4887 26.7004 40.0034 26.3061C39.5282 25.9119 39.1845 25.4215 38.972 24.835C38.7599 24.2485 38.6334 23.667 38.5929 23.0906C38.5525 22.5045 38.5322 22.0242 38.5322 21.6499V13.915H34.3464V23.1058C34.3464 23.379 34.3663 23.8138 34.4068 24.4104C34.4473 25.007 34.5636 25.669 34.7559 26.3972C34.9478 27.1149 35.2665 27.8076 35.7113 28.4751C36.1663 29.1422 36.7984 29.6933 37.6071 30.128Z" fill="black"/>
<path d="M100.193 15.8563C100.026 16.0765 99.8738 16.308 99.7379 16.5508V13.915H96.0981V30.2949H100.254V21.923C100.254 21.296 100.34 20.7348 100.512 20.2393C100.684 19.7338 100.936 19.299 101.27 18.9351C101.604 18.561 102.013 18.2627 102.498 18.0403C102.984 17.8077 103.525 17.6712 104.121 17.6308C104.728 17.5802 105.259 17.6257 105.714 17.7673V13.915C105.218 13.8543 104.723 13.8442 104.227 13.8846C103.732 13.915 103.252 14.0009 102.786 14.1424C102.321 14.2739 101.892 14.461 101.497 14.7036C100.982 15.007 100.547 15.3912 100.193 15.8563Z" fill="black"/>
<path fill-rule="evenodd" clip-rule="evenodd" d="M114.399 30.7499C112.721 30.7499 111.24 30.391 109.956 29.673C108.681 28.9452 107.68 27.9492 106.953 26.6851C106.235 25.4113 105.876 23.9553 105.876 22.3172C105.876 20.5277 106.23 18.9706 106.937 17.646C107.645 16.3214 108.621 15.2951 109.865 14.5671C111.108 13.829 112.539 13.46 114.157 13.46C115.876 13.46 117.337 13.8644 118.54 14.6733C119.743 15.4822 120.633 16.6197 121.209 18.0858C121.786 19.552 121.988 21.2758 121.816 23.2575H110.314C110.443 24.2408 110.748 25.0394 111.229 25.6538C111.897 26.4831 112.873 26.8976 114.157 26.8976C114.966 26.8976 115.658 26.7206 116.234 26.3668C116.811 26.013 117.251 25.5024 117.554 24.8349L121.679 26.018C121.062 27.5145 120.087 28.677 118.752 29.506C117.428 30.3354 115.977 30.7499 114.399 30.7499ZM116.932 18.1465C117.285 18.6254 117.521 19.3081 117.642 20.1938H110.423C110.584 19.4375 110.853 18.8155 111.229 18.3284C111.897 17.469 112.933 17.0393 114.339 17.0393C115.542 17.0393 116.406 17.4084 116.932 18.1465Z" fill="black"/>
<path fill-rule="evenodd" clip-rule="evenodd" d="M140.204 30.0824C141.023 30.5273 142.019 30.7499 143.191 30.7499C144.607 30.7499 145.775 30.507 146.695 30.0217C147.429 29.631 148.121 29.0521 148.773 28.2842V30.2949H152.383V20.2849C152.383 19.5368 152.352 18.8593 152.291 18.2526C152.231 17.646 152.039 17.0393 151.715 16.4326C151.139 15.3406 150.289 14.5722 149.167 14.1273C148.045 13.6824 146.761 13.46 145.315 13.46C143.343 13.46 141.786 13.8846 140.643 14.734C139.501 15.5833 138.722 16.6854 138.308 18.0403L142.039 19.2232C142.302 18.475 142.762 17.9543 143.419 17.6611C144.076 17.3679 144.708 17.2213 145.315 17.2213C146.407 17.2213 147.185 17.4488 147.65 17.9038C148.016 18.2611 148.238 18.7772 148.316 19.4526C147.618 19.5585 146.956 19.659 146.331 19.754C145.269 19.9058 144.319 20.0677 143.48 20.2393C142.64 20.4114 141.918 20.6087 141.311 20.8309C140.431 21.1543 139.728 21.5591 139.203 22.0444C138.687 22.5196 138.313 23.0703 138.08 23.6973C137.848 24.3243 137.731 25.017 137.731 25.7752C137.731 26.6851 137.939 27.5192 138.353 28.2777C138.778 29.0257 139.395 29.6274 140.204 30.0824ZM145.982 27.1098C145.467 27.3728 144.83 27.5044 144.071 27.5044C143.596 27.5044 143.186 27.4335 142.843 27.2919C142.499 27.1502 142.231 26.9482 142.039 26.6851C141.857 26.4123 141.766 26.0885 141.766 25.7145C141.766 25.4417 141.821 25.1938 141.933 24.9715C142.054 24.7489 142.236 24.5469 142.479 24.3648C142.731 24.1725 143.06 23.9958 143.465 23.8339C143.818 23.7024 144.228 23.581 144.693 23.47C145.158 23.3587 145.77 23.2373 146.528 23.1057C147.015 23.015 147.599 22.9113 148.278 22.7953C148.269 23.0837 148.251 23.4097 148.227 23.7732C148.196 24.3597 148.075 24.8754 147.863 25.3202C147.752 25.5526 147.539 25.841 147.226 26.1846C146.923 26.5283 146.508 26.8369 145.982 27.1098Z" fill="black"/>
<path d="M124.027 2.10791V30.295H128.153V2.10791H124.027Z" fill="black"/>
<path d="M131.486 30.295V2.10791H135.611V30.295H131.486Z" fill="black"/>
<path fill-rule="evenodd" clip-rule="evenodd" d="M11.5797 14.0331H0.377197V18.9117C0.377197 26.1962 6.2826 32.1017 13.5673 32.1017C20.852 32.1017 26.7576 26.1962 26.7576 18.9117V14.0331H15.1935V6.26362C15.1935 3.17013 12.6857 0.662354 9.59219 0.662354C6.4987 0.662354 3.99092 3.17013 3.99092 6.26362H7.60464C7.60464 5.16592 8.49452 4.27608 9.59219 4.27608C10.6899 4.27608 11.5797 5.16592 11.5797 6.26362V14.0331ZM11.5797 17.6469V24.5129H15.1935V17.6469H23.1438V18.9117C23.1438 24.2007 18.8562 28.488 13.5673 28.488C8.27842 28.488 3.99092 24.2007 3.99092 18.9117V17.6469H11.5797Z" fill="black"/>
</svg>
