<svg width="143" height="38" viewBox="0 0 143 38" fill="none" xmlns="http://www.w3.org/2000/svg">
<path d="M36.5454 13.8512C37.605 14.9109 37.605 16.629 36.5454 17.6888L17.292 36.9423C16.2323 38.002 14.5142 38.002 13.4544 36.9423L1.33826 24.8262C0.278521 23.7661 0.278521 22.0481 1.33826 20.9884L20.5917 1.73496C21.6514 0.675261 23.3696 0.675261 24.4293 1.73496L36.5454 13.8512Z" fill="black"/>
<path d="M41.068 17.6888C42.1277 16.629 42.1277 14.9109 41.068 13.8512L32.1589 4.94214L35.3663 1.73496C36.426 0.675261 38.1441 0.675261 39.2038 1.73496L51.3199 13.8512C52.3796 14.9109 52.3796 16.629 51.3199 17.6888L32.0666 36.9423C31.007 38.002 29.2888 38.002 28.2287 36.9423L25.0217 33.7349L41.068 17.6888Z" fill="black"/>
<path d="M72.5662 20.6936C73.5887 20.8843 74.4295 21.3957 75.0884 22.2278C75.7469 23.0599 76.0766 24.0133 76.0766 25.0883C76.0766 26.0589 75.8338 26.9168 75.3485 27.6626C74.8804 28.3908 74.1957 28.9624 73.2943 29.3785C72.393 29.7946 71.3265 30.0026 70.0959 30.0026H62.269V11.8525H69.7576C70.9887 11.8525 72.0461 12.0519 72.9302 12.4506C73.8316 12.8493 74.5077 13.4041 74.9582 14.1148C75.4263 14.8256 75.6606 15.6317 75.6606 16.5331C75.6606 17.5906 75.3743 18.4747 74.8022 19.1854C74.2477 19.8962 73.5024 20.3989 72.5662 20.6936ZM65.9093 19.3415H69.2375C70.1045 19.3415 70.772 19.1508 71.2401 18.7694C71.7078 18.3707 71.9421 17.8073 71.9421 17.0792C71.9421 16.3511 71.7078 15.7877 71.2401 15.389C70.772 14.9903 70.1045 14.7909 69.2375 14.7909H65.9093V19.3415ZM69.5758 27.0385C70.46 27.0385 71.1447 26.8305 71.63 26.4144C72.1329 25.9983 72.3839 25.409 72.3839 24.646C72.3839 23.8659 72.1239 23.2594 71.6038 22.8259C71.0841 22.3752 70.3817 22.1498 69.4976 22.1498H65.9093V27.0385H69.5758Z" fill="black"/>
<path d="M84.3346 30.237C82.948 30.237 81.6997 29.9335 80.5903 29.3266C79.4809 28.7025 78.6053 27.8273 77.964 26.7003C77.3399 25.5737 77.0278 24.2734 77.0278 22.8C77.0278 21.3264 77.3485 20.0263 77.9898 18.8995C78.6488 17.7727 79.5415 16.9059 80.6681 16.2992C81.7951 15.6751 83.052 15.363 84.4386 15.363C85.8253 15.363 87.0821 15.6751 88.2091 16.2992C89.3357 16.9059 90.2199 17.7727 90.8612 18.8995C91.5202 20.0263 91.8494 21.3264 91.8494 22.8C91.8494 24.2734 91.5116 25.5737 90.8354 26.7003C90.1765 27.8273 89.2751 28.7025 88.1309 29.3266C87.0043 29.9335 85.7389 30.237 84.3346 30.237ZM84.3346 27.0644C84.9936 27.0644 85.6086 26.9083 86.1807 26.5963C86.77 26.267 87.2381 25.7817 87.585 25.1404C87.9319 24.4987 88.1051 23.7185 88.1051 22.8C88.1051 21.4305 87.741 20.3817 87.0129 19.6536C86.3024 18.9081 85.4268 18.5354 84.3866 18.5354C83.3464 18.5354 82.4713 18.9081 81.7603 19.6536C81.067 20.3817 80.7201 21.4305 80.7201 22.8C80.7201 24.1694 81.0584 25.2268 81.7345 25.9721C82.4279 26.7003 83.2944 27.0644 84.3346 27.0644Z" fill="black"/>
<path d="M97.12 17.8332C97.5881 17.0705 98.195 16.4724 98.9404 16.039C99.7033 15.6056 100.57 15.3889 101.541 15.3889V19.2114H100.578C99.4342 19.2114 98.5677 19.4801 97.9784 20.0175C97.4063 20.5549 97.12 21.491 97.12 22.8258V30.0026H93.4797V15.597H97.12V17.8332Z" fill="black"/>
<path d="M102.017 22.7477C102.017 21.2915 102.303 20 102.875 18.8732C103.464 17.7465 104.261 16.8797 105.267 16.2729C106.273 15.6662 107.391 15.3628 108.621 15.3628C109.557 15.3628 110.45 15.5708 111.3 15.9869C112.149 16.3856 112.825 16.923 113.328 17.5991V10.7603H117.021V30.0025H113.328V27.8705C112.877 28.581 112.245 29.1531 111.43 29.5864C110.615 30.0201 109.67 30.2368 108.595 30.2368C107.382 30.2368 106.273 29.9247 105.267 29.3006C104.261 28.6764 103.464 27.8009 102.875 26.6743C102.303 25.53 102.017 24.2212 102.017 22.7477ZM113.354 22.7997C113.354 21.9156 113.181 21.1615 112.834 20.5375C112.487 19.896 112.019 19.4107 111.43 19.0813C110.84 18.7346 110.208 18.5612 109.532 18.5612C108.856 18.5612 108.231 18.7259 107.659 19.0553C107.087 19.3846 106.619 19.87 106.255 20.5115C105.909 21.1355 105.735 21.881 105.735 22.7477C105.735 23.6147 105.909 24.3772 106.255 25.0362C106.619 25.6775 107.087 26.1714 107.659 26.5182C108.249 26.8647 108.873 27.0383 109.532 27.0383C110.208 27.0383 110.84 26.8737 111.43 26.544C112.019 26.1976 112.487 25.7119 112.834 25.0882C113.181 24.4464 113.354 23.6839 113.354 22.7997Z" fill="black"/>
<path d="M132.928 22.4879C132.928 23.008 132.893 23.4761 132.824 23.8922H122.292C122.379 24.9324 122.743 25.7469 123.384 26.3362C124.026 26.926 124.814 27.2204 125.751 27.2204C127.103 27.2204 128.065 26.6397 128.637 25.4783H132.563C132.147 26.8649 131.35 28.0091 130.171 28.9105C128.992 29.7947 127.545 30.237 125.828 30.237C124.442 30.237 123.193 29.9335 122.084 29.3266C120.992 28.7025 120.134 27.8273 119.51 26.7003C118.903 25.5737 118.6 24.2734 118.6 22.8C118.6 21.3091 118.903 20.0003 119.51 18.8735C120.116 17.7467 120.966 16.8799 122.058 16.2732C123.15 15.6664 124.407 15.363 125.828 15.363C127.198 15.363 128.42 15.6578 129.495 16.2472C130.587 16.8366 131.428 17.6773 132.017 18.7695C132.624 19.8442 132.928 21.0838 132.928 22.4879ZM129.157 21.4478C129.139 20.5117 128.802 19.7663 128.143 19.2115C127.484 18.6395 126.678 18.3534 125.724 18.3534C124.823 18.3534 124.06 18.6308 123.436 19.1855C122.829 19.7229 122.457 20.477 122.318 21.4478H129.157Z" fill="black"/>
<path d="M138.185 17.8332C138.653 17.0705 139.26 16.4724 140.005 16.039C140.768 15.6056 141.635 15.3889 142.606 15.3889V19.2114H141.643C140.499 19.2114 139.632 19.4801 139.043 20.0175C138.471 20.5549 138.185 21.491 138.185 22.8258V30.0026H134.544V15.597H138.185V17.8332Z" fill="black"/>
</svg>
