<svg width="149" height="39" viewBox="0 0 149 39" fill="none" xmlns="http://www.w3.org/2000/svg">
<path d="M23.895 7.82061C23.895 3.78781 27.1643 0.518555 31.1971 0.518555C35.2298 0.518555 38.4991 3.78781 38.4991 7.82061C38.4991 11.8534 35.2298 15.1227 31.1971 15.1227C27.1643 15.1227 23.895 11.8534 23.895 7.82061Z" fill="black"/>
<path d="M31.6393 18.3586V23.6132C31.6393 25.9414 31.6377 27.5884 31.531 28.8752C31.4259 30.1421 31.2267 30.9141 30.9119 31.5193C30.2994 32.6986 29.3379 33.6605 28.1582 34.273C27.553 34.5878 26.781 34.787 25.5141 34.8921C24.2273 34.9988 22.5803 35.0004 20.2524 35.0004H15.4041C13.0761 35.0004 11.4292 34.9988 10.1426 34.8921C8.87538 34.787 8.10368 34.5878 7.49822 34.273C6.31877 33.6605 5.35709 32.6986 4.74441 31.5193C4.4299 30.9141 4.23075 30.1421 4.12548 28.8752C4.01867 27.5884 4.01733 25.9414 4.01733 23.6132V18.7652C4.01733 16.4371 4.01867 14.7902 4.12548 13.5036C4.23075 12.2364 4.4299 11.4647 4.74441 10.8593C5.35709 9.67982 6.31877 8.71814 7.49822 8.10546C8.10368 7.79094 8.87538 7.5918 10.1426 7.48657C11.4292 7.37972 13.076 7.37842 15.4041 7.37842H20.6589C20.7058 6.24088 20.9329 5.14983 21.3122 4.13306H15.3319C13.0923 4.13302 11.3107 4.13302 9.87398 4.25233C8.40249 4.37451 7.14808 4.63025 6.00219 5.22549C4.22998 6.14607 2.78503 7.59107 1.86444 9.36328C1.2692 10.5091 1.01347 11.7635 0.891281 13.235C0.771973 14.6717 0.771973 16.4533 0.771973 18.693V23.6854C0.771973 25.9251 0.771973 27.7068 0.891281 29.1437C1.01347 30.6151 1.2692 31.8694 1.86444 33.0154C2.78503 34.7874 4.22998 36.2324 6.00219 37.1533C7.14808 37.7484 8.40249 38.004 9.87398 38.1265C11.3107 38.2457 13.0922 38.2457 15.3319 38.2457H20.3245C22.5641 38.2457 24.3458 38.2457 25.7826 38.1265C27.254 38.004 28.5083 37.7484 29.6544 37.1533C31.4263 36.2324 32.8713 34.7874 33.7922 33.0154C34.3873 31.8694 34.6429 30.6151 34.7654 29.1437C34.8846 27.7068 34.8847 25.9251 34.8847 23.6858V17.7053C33.8676 18.0847 32.7768 18.3117 31.6393 18.3586Z" fill="black"/>
<path d="M59.3849 18.0804C59.3849 19.0767 59.1447 20.0107 58.6644 20.8827C58.2019 21.7545 57.4636 22.4571 56.4495 22.991C55.4531 23.5244 54.1899 23.7913 52.6597 23.7913H49.5372V30.9437H45.801V12.3159H52.6597C54.101 12.3159 55.3286 12.565 56.3428 13.0632C57.3565 13.5613 58.1127 14.2463 58.6109 15.118C59.1269 15.9898 59.3849 16.9773 59.3849 18.0804ZM52.4994 20.7758C53.5315 20.7758 54.2966 20.5445 54.7947 20.0819C55.2929 19.6015 55.542 18.9343 55.542 18.0804C55.542 16.2656 54.5278 15.3582 52.4994 15.3582H49.5372V20.7758H52.4994Z" fill="black"/>
<path d="M64.7064 18.4539C65.1867 17.6711 65.8094 17.0573 66.5745 16.6125C67.3571 16.1677 68.2467 15.9453 69.243 15.9453V19.8683H68.2556C67.0816 19.8683 66.192 20.1441 65.5871 20.6956C64.9997 21.2473 64.7064 22.208 64.7064 23.5779V30.9436H60.9702V16.1588H64.7064V18.4539Z" fill="black"/>
<path d="M77.2571 31.1839C75.834 31.1839 74.5529 30.8723 73.4142 30.2496C72.2755 29.6091 71.3773 28.7109 70.7189 27.5544C70.0784 26.3978 69.7583 25.0635 69.7583 23.5512C69.7583 22.0389 70.0873 20.7046 70.7457 19.5482C71.4215 18.3917 72.338 17.5022 73.4945 16.8794C74.6507 16.2389 75.9407 15.9187 77.3642 15.9187C78.7873 15.9187 80.0773 16.2389 81.2339 16.8794C82.39 17.5022 83.2975 18.3917 83.9559 19.5482C84.6318 20.7046 84.9701 22.0389 84.9701 23.5512C84.9701 25.0635 84.6228 26.3978 83.9292 27.5544C83.2529 28.7109 82.328 29.6091 81.1536 30.2496C79.997 30.8723 78.6984 31.1839 77.2571 31.1839ZM77.2571 27.928C77.9334 27.928 78.565 27.7677 79.152 27.4477C79.7568 27.1097 80.2376 26.6116 80.5933 25.9532C80.9491 25.2948 81.1268 24.4944 81.1268 23.5512C81.1268 22.1456 80.7532 21.0693 80.0059 20.3221C79.2765 19.5571 78.378 19.1746 77.3107 19.1746C76.2433 19.1746 75.3448 19.5571 74.6154 20.3221C73.9034 21.0693 73.5477 22.1456 73.5477 23.5512C73.5477 24.9569 73.8945 26.042 74.5886 26.8071C75.3002 27.5544 76.1898 27.928 77.2571 27.928Z" fill="black"/>
<path d="M85.6824 23.4981C85.6824 22.0036 85.9757 20.6779 86.5631 19.5215C87.1679 18.365 87.9862 17.4754 89.0182 16.8527C90.0502 16.23 91.1975 15.9187 92.4607 15.9187C93.4217 15.9187 94.3377 16.1322 95.2095 16.5592C96.0813 16.9684 96.7754 17.5199 97.291 18.2138V11.1951H101.081V30.9437H97.291V28.7551C96.8285 29.4845 96.1791 30.0719 95.343 30.5165C94.5069 30.9616 93.5374 31.1839 92.4339 31.1839C91.1885 31.1839 90.0502 30.8634 89.0182 30.2232C87.9862 29.5827 87.1679 28.6841 86.5631 27.5276C85.9757 26.3536 85.6824 25.01 85.6824 23.4981ZM97.3178 23.5512C97.3178 22.6437 97.1401 21.8701 96.7843 21.2296C96.4282 20.5711 95.9478 20.073 95.343 19.735C94.7381 19.3791 94.0887 19.2012 93.395 19.2012C92.7009 19.2012 92.0603 19.3702 91.4733 19.7083C90.8863 20.0463 90.406 20.5445 90.0324 21.2028C89.6766 21.8433 89.4985 22.6084 89.4985 23.4981C89.4985 24.3873 89.6766 25.1702 90.0324 25.8465C90.406 26.5045 90.8863 27.0116 91.4733 27.3673C92.0782 27.7235 92.7187 27.9012 93.395 27.9012C94.0887 27.9012 94.7381 27.7324 95.343 27.3941C95.9478 27.0383 96.4282 26.5402 96.7843 25.8996C97.1401 25.2416 97.3178 24.4587 97.3178 23.5512Z" fill="black"/>
<path d="M117.62 16.1587V30.9435H113.857V29.0754C113.377 29.716 112.745 30.2231 111.962 30.5967C111.197 30.9524 110.361 31.1301 109.453 31.1301C108.297 31.1301 107.274 30.89 106.385 30.4097C105.495 29.9115 104.792 29.191 104.276 28.2479C103.778 27.2872 103.529 26.1485 103.529 24.8321V16.1587H107.265V24.2983C107.265 25.4727 107.559 26.3797 108.146 27.0203C108.733 27.643 109.534 27.9546 110.548 27.9546C111.58 27.9546 112.389 27.643 112.976 27.0203C113.563 26.3797 113.857 25.4727 113.857 24.2983V16.1587H117.62Z" fill="black"/>
<path d="M119.278 23.5512C119.278 22.021 119.59 20.6868 120.212 19.5482C120.835 18.3917 121.698 17.5022 122.801 16.8794C123.904 16.2389 125.167 15.9187 126.59 15.9187C128.423 15.9187 129.935 16.3813 131.127 17.3065C132.337 18.2138 133.147 19.4948 133.556 21.1492H129.526C129.312 20.5089 128.948 20.0108 128.432 19.6549C127.934 19.2813 127.311 19.0945 126.564 19.0945C125.496 19.0945 124.651 19.4859 124.028 20.2687C123.406 21.0336 123.094 22.1281 123.094 23.5512C123.094 24.9569 123.406 26.0509 124.028 26.8339C124.651 27.599 125.496 27.9815 126.564 27.9815C128.076 27.9815 129.063 27.3053 129.526 25.9532H133.556C133.147 27.5544 132.337 28.8265 131.127 29.7693C129.918 30.7125 128.405 31.1839 126.59 31.1839C125.167 31.1839 123.904 30.8723 122.801 30.2496C121.698 29.6091 120.835 28.7198 120.212 27.5811C119.59 26.4246 119.278 25.0814 119.278 23.5512Z" fill="black"/>
<path d="M139.575 19.2281V26.3801C139.575 26.8783 139.691 27.243 139.922 27.4746C140.171 27.688 140.581 27.7947 141.15 27.7947H142.885V30.9439H140.536C137.387 30.9439 135.812 29.4137 135.812 26.3537V19.2281H134.051V16.1591H135.812V12.5029H139.575V16.1591H142.885V19.2281H139.575Z" fill="black"/>
<path d="M146.159 31.1307C145.483 31.1307 144.922 30.9258 144.478 30.5169C144.051 30.0897 143.837 29.5648 143.837 28.9421C143.837 28.3194 144.051 27.8034 144.478 27.3945C144.922 26.9673 145.483 26.7539 146.159 26.7539C146.817 26.7539 147.36 26.9673 147.787 27.3945C148.214 27.8034 148.427 28.3194 148.427 28.9421C148.427 29.5648 148.214 30.0897 147.787 30.5169C147.36 30.9258 146.817 31.1307 146.159 31.1307Z" fill="black"/>
</svg>
