<svg width="148" height="21" viewBox="0 0 148 21" fill="none" xmlns="http://www.w3.org/2000/svg">
<g clip-path="url(#clip0_1_2322)">
<path d="M10.0001 0.819824L12.2452 7.72965H19.5107L13.6328 12.0001L15.878 18.91L10.0001 14.6395L4.12222 18.91L6.36736 12.0001L0.489502 7.72965H7.75493L10.0001 0.819824Z" fill="#FB9953"/>
</g>
<g clip-path="url(#clip1_1_2322)">
<path d="M42.0001 0.819824L44.2452 7.72965H51.5107L45.6328 12.0001L47.878 18.91L42.0001 14.6395L36.1222 18.91L38.3674 12.0001L32.4895 7.72965H39.7549L42.0001 0.819824Z" fill="#FB9953"/>
</g>
<g clip-path="url(#clip2_1_2322)">
<path d="M74.0001 0.819824L76.2452 7.72965H83.5107L77.6328 12.0001L79.878 18.91L74.0001 14.6395L68.1222 18.91L70.3674 12.0001L64.4895 7.72965H71.7549L74.0001 0.819824Z" fill="#FB9953"/>
</g>
<g clip-path="url(#clip3_1_2322)">
<path d="M106 0.819824L108.245 7.72965H115.511L109.633 12.0001L111.878 18.91L106 14.6395L100.122 18.91L102.367 12.0001L96.4895 7.72965H103.755L106 0.819824Z" fill="#FB9953"/>
</g>
<g clip-path="url(#clip4_1_2322)">
<path d="M138 0.819824L140.245 7.72965H147.511L141.633 12.0001L143.878 18.91L138 14.6395L132.122 18.91L134.367 12.0001L128.49 7.72965H135.755L138 0.819824Z" fill="#FB9953"/>
</g>
<defs>
<clipPath id="clip0_1_2322">
<rect width="20" height="19" fill="white" transform="translate(0 0.819824)"/>
</clipPath>
<clipPath id="clip1_1_2322">
<rect width="20" height="19" fill="white" transform="translate(32 0.819824)"/>
</clipPath>
<clipPath id="clip2_1_2322">
<rect width="20" height="19" fill="white" transform="translate(64 0.819824)"/>
</clipPath>
<clipPath id="clip3_1_2322">
<rect width="20" height="19" fill="white" transform="translate(96 0.819824)"/>
</clipPath>
<clipPath id="clip4_1_2322">
<rect width="20" height="19" fill="white" transform="translate(128 0.819824)"/>
</clipPath>
</defs>
</svg>
